<svg width="165" height="165" viewBox="0 0 165 165" fill="none" xmlns="http://www.w3.org/2000/svg">
<path d="M74.8 21.98C74.8 30.28 77.7 37.9 82.54 43.88C87.38 37.89 90.29 30.28 90.29 21.98C90.29 13.68 87.39 6.06002 82.54 0.0800171C77.7 6.06002 74.8 13.68 74.8 21.98Z" fill="#FFD073"/>
<path d="M45.72 33.92C49.87 41.11 56.19 46.25 63.38 49.02C64.58 41.42 63.28 33.36 59.14 26.18C54.99 18.99 48.67 13.85 41.48 11.08C40.27 18.68 41.57 26.73 45.72 33.92Z" fill="#FFD073"/>
<path d="M26.51 58.8C33.7 62.95 41.75 64.2499 49.35 63.0399C46.59 55.8499 41.44 49.53 34.25 45.38C27.06 41.23 19.01 39.93 11.41 41.14C14.17 48.33 19.32 54.65 26.51 58.8" fill="#FFD073"/>
<path d="M22.31 89.96C30.61 89.96 38.23 87.06 44.21 82.22C38.23 77.38 30.61 74.47 22.31 74.47C14.01 74.47 6.39 77.37 0.410004 82.22C6.39 87.05 14.01 89.96 22.31 89.96Z" fill="#FFD073"/>
<path d="M34.25 119.04C41.44 114.89 46.58 108.57 49.35 101.38C41.75 100.18 33.69 101.48 26.51 105.62C19.32 109.77 14.18 116.09 11.41 123.28C19.01 124.48 27.06 123.19 34.25 119.04Z" fill="#FFD073"/>
<path d="M59.13 138.25C63.28 131.06 64.58 123.01 63.37 115.41C56.18 118.17 49.86 123.32 45.71 130.51C41.56 137.7 40.26 145.75 41.47 153.35C48.66 150.58 54.98 145.44 59.13 138.25Z" fill="#FFD073"/>
<path d="M90.29 142.45C90.29 134.15 87.39 126.53 82.55 120.55C77.71 126.54 74.8 134.15 74.8 142.45C74.8 150.75 77.7 158.37 82.55 164.35C87.39 158.36 90.29 150.75 90.29 142.45Z" fill="#FFD073"/>
<path d="M119.37 130.5C115.22 123.31 108.9 118.17 101.71 115.4C100.51 123 101.81 131.06 105.95 138.24C110.1 145.43 116.42 150.57 123.61 153.34C124.81 145.74 123.52 137.69 119.37 130.5Z" fill="#FFD073"/>
<path d="M138.58 105.62C131.39 101.47 123.34 100.17 115.74 101.38C118.5 108.57 123.65 114.89 130.84 119.04C138.03 123.19 146.08 124.49 153.68 123.28C150.92 116.09 145.77 109.77 138.58 105.62Z" fill="#FFD073"/>
<path d="M142.78 74.47C134.48 74.47 126.86 77.37 120.88 82.21C126.87 87.05 134.48 89.96 142.78 89.96C151.08 89.96 158.7 87.06 164.68 82.21C158.7 77.37 151.08 74.47 142.78 74.47Z" fill="#FFD073"/>
<path d="M130.84 45.39C123.65 49.54 118.51 55.86 115.74 63.05C123.34 64.25 131.4 62.95 138.58 58.81C145.77 54.66 150.91 48.34 153.68 41.15C146.07 39.94 138.02 41.24 130.84 45.39Z" fill="#FFD073"/>
<path d="M105.95 26.17C101.8 33.36 100.5 41.41 101.71 49.01C108.9 46.25 115.22 41.1 119.37 33.91C123.52 26.72 124.82 18.67 123.61 11.07C116.43 13.84 110.1 18.99 105.95 26.17Z" fill="#FFD073"/>
</svg>
